HIERARCHY
ROOT Hips
{
	OFFSET -131.695496 91.669037 -190.067505
	CHANNELS 6 Xposition Yposition Zposition Zrotation Yrotation Xrotation 
	JOINT LeftUpLeg
	{
		OFFSET 0.103456 1.857829 10.548507
		CHANNELS 3 Zrotation Yrotation Xrotation
		JOINT LeftLeg
		{
			OFFSET 43.500000 -0.000031 0.000008
			CHANNELS 3 Zrotation Yrotation Xrotation
			JOINT LeftFoot
			{
				OFFSET 42.372200 0.000015 -0.000002
				CHANNELS 3 Zrotation Yrotation Xrotation
				JOINT LeftToe
				{
					OFFSET 17.299992 -0.000004 0.000000
					CHANNELS 3 Zrotation Yrotation Xrotation
					End Site
					{
						OFFSET 0.000000 0.000000 0.000000
					}
				}
			}
		}
	}
	JOINT RightUpLeg
	{
		OFFSET 0.103460 1.857824 -10.548508
		CHANNELS 3 Zrotation Yrotation Xrotation
		JOINT RightLeg
		{
			OFFSET 43.500042 -0.000019 0.000004
			CHANNELS 3 Zrotation Yrotation Xrotation
			JOINT RightFoot
			{
				OFFSET 42.372265 -0.000019 0.000016
				CHANNELS 3 Zrotation Yrotation Xrotation
				JOINT RightToe
				{
					OFFSET 17.299999 -0.000001 -0.000006
					CHANNELS 3 Zrotation Yrotation Xrotation
					End Site
					{
						OFFSET 0.000000 0.000000 0.000000
					}
				}
			}
		}
	}
	JOINT Spine
	{
		OFFSET 6.901965 -2.603734 0.000001
		CHANNELS 3 Zrotation Yrotation Xrotation
		JOINT Spine1
		{
			OFFSET 12.588102 0.000006 -0.000006
			CHANNELS 3 Zrotation Yrotation Xrotation
			JOINT Spine2
			{
				OFFSET 12.343201 -0.000002 0.000010
				CHANNELS 3 Zrotation Yrotation Xrotation
				JOINT Neck
				{
					OFFSET 25.832899 -0.000004 -0.000009
					CHANNELS 3 Zrotation Yrotation Xrotation
					JOINT Head
					{
						OFFSET 11.766603 0.000001 0.000007
						CHANNELS 3 Zrotation Yrotation Xrotation
						End Site
						{
							OFFSET 0.000000 0.000000 0.000000
						}
					}
				}
				JOINT LeftShoulder
				{
					OFFSET 19.745899 -1.480371 6.000098
					CHANNELS 3 Zrotation Yrotation Xrotation
					JOINT LeftArm
					{
						OFFSET 11.284129 -0.000011 -0.000015
						CHANNELS 3 Zrotation Yrotation Xrotation
						JOINT LeftForeArm
						{
							OFFSET 33.000046 0.000011 0.000030
							CHANNELS 3 Zrotation Yrotation Xrotation
							JOINT LeftHand
							{
								OFFSET 25.200010 0.000012 -0.000000
								CHANNELS 3 Zrotation Yrotation Xrotation
								End Site
								{
									OFFSET 0.000000 0.000000 0.000000
								}
							}
						}
					}
				}
				JOINT RightShoulder
				{
					OFFSET 19.746092 -1.480375 -6.000075
					CHANNELS 3 Zrotation Yrotation Xrotation
					JOINT RightArm
					{
						OFFSET 11.284135 -0.000010 -0.000014
						CHANNELS 3 Zrotation Yrotation Xrotation
						JOINT RightForeArm
						{
							OFFSET 33.000092 0.000016 0.000013
							CHANNELS 3 Zrotation Yrotation Xrotation
							JOINT RightHand
							{
								OFFSET 25.199780 0.000135 0.000426
								CHANNELS 3 Zrotation Yrotation Xrotation
								End Site
								{
									OFFSET 0.000000 0.000000 0.000000
								}
							}
						}
					}
				}
			}
		}
	}
}
MOTION
Frames: 11
Frame Time: 0.033333
-97.781326 32.358089 -408.02179 64.346194 0.977531 -51.119017 126.959201 -18.91499 172.291822 -136.40411 5.019024 -0.720864 118.246202 2.017132 -23.567928 21.454551 0.003094 -0.0 102.078659 -4.047304 -152.222828 -144.857288 -7.574874 25.789628 111.647802 -15.910724 -13.538582 21.454557 -0.003109 -1.6e-05 13.2224 5.4046 -2.282959 16.323307 11.076411 -3.792928 15.999442 11.053467 -3.860442 -9.451545 5.459186 -16.654988 -12.673153 2.945164 -16.280162 73.29711 -81.038822 105.618999 -7.345942 30.033189 -66.630729 -100.230793 0.032379 2.757944 3.159865 -23.374335 -1.351674 -145.242948 68.390288 37.245114 -0.146497 -33.94045 3.15641 -26.18373 17.228874 -1.328571 23.079064 4.518503 43.12744 
-98.548073 28.25375 -408.708496 63.2529 0.908112 -46.941042 120.365596 -16.138004 171.481571 -144.164994 5.907074 -8.514481 114.42411 5.958862 -17.359269 21.454545 0.003092 3e-06 100.443266 -3.908805 -144.530341 -149.766405 -8.259598 32.485196 115.156293 -19.580221 -14.3591 21.45456 -0.003113 -1.7e-05 14.573549 3.341033 -2.217799 19.05094 7.00122 -3.860511 18.731037 6.977938 -3.902817 -8.849091 3.04306 -15.606769 -15.352609 6.207924 -17.13537 76.085043 -81.704123 102.80602 -15.371249 26.874143 -64.057482 -105.72081 1.45358 2.901492 5.581272 -18.348149 -15.161343 -152.562001 71.447979 29.607917 1.694838 -43.799005 7.410019 -37.060272 19.633328 -1.71112 20.688655 9.588582 36.065735 
-99.386322 25.107719 -409.00769 61.221192 2.845768 -44.574952 117.281028 -12.644802 167.821464 -148.539307 6.282553 -13.528201 115.172303 8.97045 -12.721682 21.454551 0.003092 0.0 97.149066 -5.353605 -139.256342 -154.093398 -8.739331 39.415601 116.737604 -23.775562 -13.870203 21.454557 -0.003113 -1.6e-05 15.961997 1.028854 -1.663271 21.883632 2.353479 -3.102392 21.565752 2.334841 -3.116516 -9.705263 -0.990967 -14.69953 -16.823635 10.079654 -18.743803 79.523927 -80.166067 99.51908 -22.608981 22.890679 -60.835873 -110.279101 1.713607 3.081849 1.792088 -15.356133 -14.448516 -153.010021 73.736277 29.087884 -3.360997 -52.623442 10.504417 -45.713196 22.740032 -2.159399 19.097069 16.807948 20.290166 
-99.233849 23.28577 -409.209686 65.153591 2.720298 -39.656976 110.567341 -9.928607 178.005194 -150.751018 5.580118 -8.821867 116.289107 6.279185 -16.508753 21.454551 0.003092 -2e-06 94.303192 -5.188597 -131.776602 -155.123705 -9.578441 43.725778 120.072403 -26.038763 -12.906139 21.454558 -0.003109 -1.8e-05 17.023528 0.718432 -0.984288 24.023734 1.625249 -1.798227 23.705654 1.614495 -1.807989 -10.883433 -4.906062 -13.589858 -18.030704 12.254999 -19.637854 83.510121 -78.818259 95.681975 -28.440904 21.573791 -58.798599 -114.789798 1.628851 3.279943 -2.015941 -14.424671 -7.849019 -157.521948 75.846614 24.424085 -14.296608 -56.359067 25.004947 -58.521983 22.86016 -2.615843 10.497488 29.538273 -0.95991 
-98.809578 23.057911 -409.565887 69.682799 2.500705 -33.899048 103.731415 -5.5681 -174.029054 -151.0691 5.079373 -6.247067 115.053594 4.551984 -18.431621 21.45455 0.003092 -1e-06 93.318416 -3.142397 -127.750383 -154.599119 -10.279488 45.587876 122.852796 -26.923822 -11.095442 21.454553 -0.003109 -2e-05 17.838251 1.06482 -0.898403 25.653192 2.30186 -1.539071 25.334937 2.29266 -1.552927 -10.792167 -7.690578 -11.173431 -18.938523 12.390504 -18.155362 88.817861 -79.324321 90.375929 -32.634138 24.523523 -57.837625 -118.2397 1.679695 3.419965 -4.463785 -14.123568 -7.214702 -171.831044 78.336321 9.810074 -28.209924 -51.770122 40.535984 -68.618266 21.069419 -2.897267 -5.332388 35.953972 -21.491933 
-98.381943 24.46269 -409.989502 72.150389 4.897752 -30.758056 99.987665 -3.167102 -176.241092 -149.327401 5.407109 -7.851209 112.629505 5.152309 -15.229935 21.454553 0.003093 0.0 92.125243 -2.210603 -130.700478 -153.354508 -10.352552 44.840895 121.626709 -26.936536 -8.449056 21.454557 -0.003111 -1.9e-05 18.6513 0.446092 -0.681415 27.285159 1.039795 -1.238789 26.967089 1.032424 -1.245024 -8.85096 -6.974678 -10.130664 -21.953807 11.570655 -16.92138 94.72579 -78.986131 84.51799 -35.592386 26.243149 -57.847734 -117.607689 1.61495 3.398377 -5.422691 -14.540383 -4.653232 174.707073 79.369086 -3.867874 -38.779782 -40.918164 50.151675 -73.244203 19.488447 -2.981964 -11.010523 32.59661 -31.121067 
-97.870102 26.917721 -410.492706 76.933284 6.258774 -28.11499 96.763556 -2.800702 -175.632509 -146.315397 5.400421 -7.384727 111.735898 4.757556 -14.193556 21.454553 0.003093 0.0 91.33555 -1.2565 -134.028474 -150.424808 -10.445846 42.211816 120.83371 -25.632307 -5.998144 21.454555 -0.00311 -1.7e-05 18.865365 0.466202 0.04073 27.71951 0.909073 0.191622 27.401368 0.910347 0.18615 -7.147197 -9.50878 -8.901425 -22.66488 11.444372 -16.257402 102.586258 -77.794871 76.771026 -37.585957 28.437902 -58.204318 -112.901401 0.856877 3.253388 -7.502276 -17.748919 5.923536 156.33594 82.128319 -22.37209 -44.192113 -28.497433 52.499262 -71.244337 20.098607 -2.939487 -8.838691 30.981629 -27.622181 
-97.576286 30.21344 -411.032501 81.304796 8.087641 -26.183959 95.613919 -3.557205 -175.211551 -141.828796 5.351543 -4.986338 110.764105 3.151512 -16.15413 21.45455 0.003092 -2e-06 90.910303 -0.365995 -139.05742 -146.913995 -10.15693 38.698455 118.518699 -23.938155 -3.124746 21.45456 -0.003106 -1.6e-05 18.824312 0.280505 0.640753 27.638287 0.400268 1.329813 27.320282 0.408424 1.32739 -5.691763 -12.542511 -8.465055 -24.154718 11.140412 -16.485814 106.296977 -77.519171 73.081057 -38.024575 31.865592 -56.706133 -110.089494 0.788579 3.137711 -1.797003 -18.381963 3.099261 129.781039 84.550037 -48.952895 -47.277671 -16.660529 49.041438 -66.968325 21.309231 -2.845153 -1.935914 28.715468 -15.562596 
-97.632851 34.082272 -411.943695 85.219785 10.332226 -24.512939 95.655911 -4.796599 -176.532031 -136.693095 5.35226 -3.568113 109.358705 2.079607 -17.120849 21.454551 0.003091 1e-06 91.087369 -0.375699 -144.664786 -142.994805 -9.700284 35.424872 115.363712 -22.365475 0.27608 21.454557 -0.003112 -1.6e-05 18.598354 -0.142732 0.982004 27.179802 -0.511563 1.903157 26.861891 -0.499926 1.906229 -5.883501 -14.188834 -8.474057 -24.572388 10.697513 -16.760526 112.318998 -77.552905 67.040021 -35.963873 34.928867 -52.85461 -110.6795 1.033779 3.146141 -1.16155 -16.413752 -2.343461 102.644971 86.087786 -76.012089 -51.084245 -5.633211 43.852775 -63.145106 23.412251 -2.837878 -0.625677 22.477304 -14.874323 
-98.078484 38.259731 -413.176697 88.72219 12.431219 -21.99304 96.896123 -4.769306 -177.691346 -130.982688 5.098465 -2.466363 108.232708 1.246294 -17.774362 21.454551 0.003092 -0.0 92.347894 0.08881 -149.981583 -138.9043 -9.205997 32.481415 112.178501 -20.822744 3.746245 21.454558 -0.003108 -2e-05 18.171153 -0.453432 1.195168 26.319193 -1.16627 2.256211 26.001304 -1.15249 2.263229 -5.284601 -14.408439 -8.801979 -25.411323 9.951901 -16.854277 118.471653 -77.850626 60.832984 -34.984311 37.785552 -48.496232 -114.185306 1.411182 3.26949 -2.704612 -13.459964 -0.81564 81.055849 86.554964 -97.519023 -53.864296 3.014655 39.987131 -61.624986 23.542649 -2.78581 -1.820575 17.274679 -20.047971 
-98.885803 42.281429 -414.837708 91.649903 13.79685 -18.568971 99.022088 -4.014404 -177.585875 -125.056898 4.561311 -0.667867 107.289411 -0.046486 -18.403675 21.454551 0.003092 0.0 94.685772 0.943496 -153.935962 -134.952189 -8.733971 30.351295 109.006691 -19.584454 7.240789 21.454557 -0.003113 -1.7e-05 17.585688 -0.551354 1.46219 25.143221 -1.40677 2.769973 24.825429 -1.389886 2.778428 -4.212876 -14.659823 -9.538832 -25.417653 9.804642 -17.475046 122.297406 -77.816127 56.98602 -36.354898 39.890487 -44.954242 -118.743194 1.820632 3.430946 -3.616602 -10.983533 -1.761587 61.544068 86.986434 -116.936158 -56.241369 8.864794 35.832914 -62.504509 23.549102 -2.821671 -1.484808 12.3829 -25.750602 
